PathFileType	4	(X/Y/Z)	/home/abdul/Desktop/myosuite/custom_workspace/IK/output/S14_12_1.trc
DataRate	CameraRate	NumFrames	NumMarkers	Units	OrigDataRate	OrigDataStartFrame	OrigNumFrames
200.0	200.0	28	3	mm	200.0	766	2040
Frame#	Time	V_Shoulder			V_Elbow			V_Wrist		
		X1	Y1	Z1	X2	Y2	Z2	X3	Y3	Z3

766	3.825	-126.78877435128521	635.4775450574929	321.5821739406114	-160.11903972973292	441.4989959525759	37.03970666634349	-58.81471022704894	206.37972530087978	30.751915286030574
767	3.83	-126.84590037151371	635.4514164254996	321.51713623222213	-160.28510338338185	441.5756209810384	36.90191535874469	-58.9641183725448	206.44706140756642	30.877443428606753
768	3.835	-126.90486272340009	635.4260933746916	321.45150735349694	-160.45236648009183	441.65407313801745	36.76290127930013	-59.11395191324614	206.51695825260668	31.003413065061096
769	3.84	-126.96564874093178	635.4016336794552	321.3853030767724	-160.62068076947554	441.7343689367733	36.62266582042103	-59.26396261973959	206.58947899876554	31.129774686218035
770	3.845	-127.02824518612454	635.3780955039796	321.31853879066756	-160.78989727024856	441.81652503119545	36.481208042932586	-59.41389863526399	206.66468859644516	31.256485172390732
771	3.85	-127.09263827198338	635.3555373731118	321.25122949917323	-160.95986674076886	441.9005582487881	36.3385247625947	-59.56350526415302	206.7426538155315	31.383508313676188
772	3.855	-127.15881368576026	635.3340181428075	321.1833898221439	-161.1304401552531	441.9864856225164	36.19461064764813	-59.7125257858155	206.82344327096644	31.510815321183856
773	3.86	-127.22675661248172	635.3135969701693	321.1150339971671	-161.3014691840703	442.0743244212352	36.04945832723878	-59.86070229150286	206.90712744163665	31.63838532728706
774	3.865	-127.29645175871936	635.294333283067	321.04617588278165	-161.47280667648891	442.16409217843074	35.903058510525796	-60.007776540980416	206.99377868219437	31.766205873004715
775	3.87	-127.3678833765769	635.2762867493306	320.9768289630108	-161.6443071442353	442.25580671901366	35.755400116231485	-60.15349083609727	207.08347122745465	31.894273380645725
776	3.875	-127.44103528786708	635.2595172455143	320.9070063531757	-161.8158272442068	442.34948618391184	35.60647041234329	-60.29758890814068	207.17628118904366	32.02259360988
777	3.88	-127.51589090845245	635.244084825223	320.83672080694805	-161.98722625867867	442.44514905222434	35.45625516563007	-60.43981681576422	207.27228654400818	32.151182095437406
778	3.885	-127.59243327272388	635.2300496869972	320.76598472460114	-162.15836657134435	442.54281416071075	35.304738800587614	-60.57992385019611	207.37156711512995	32.2800645646799
779	3.89	-127.67064505819083	635.2174721417537	320.6948101624116	-162.3291141375342	442.64250072040585	35.15190456738086	-60.7176634443651	207.4742045427308	32.40927733334108
780	3.895	-127.75050861015764	635.2064125797783	320.6232088431639	-162.49933894697307	442.74422833016615	34.99773471830395	-60.852794082526486	207.58028224779343	32.53886767778273
781	3.9	-127.83200596646059	635.1969314372672	320.55119216770464	-162.66891547745624	442.8480169869728	34.842210692233834	-60.98508020693087	207.68988538626763	32.66889418217753
782	3.905	-127.91511888224004	635.1890891624183	320.4787712274937	-162.83772313784982	442.9538870928341	34.68531330650849	-61.114293118053254	207.8031007944776	32.799427059092366
783	3.91	-127.99982885472252	635.1829461810707	320.4059568180939	-163.00564669885426	443.06185945815366	34.527022955618186	-61.240211864889915	207.92001692559256	32.93054844201617
784	3.915	-128.08611714798806	635.1785628618937	320.3327594535397	-163.17257671000962	443.1719553014492	34.36731981605677	-61.36262412183573	208.04072377717495	33.06235264845019
785	3.92	-128.17396481769705	635.1759994811276	320.2591893815238	-163.33840990146484	443.2841962453319	34.206184056640424	-61.48132704867537	208.16531280986845	33.194946412256485
786	3.925	-128.263352735753	635.1753161868795	320.1852565993374	-163.50304956908496	443.3986043086799	34.04359605356422	-61.59612813025704	208.29387685734318	33.32844908404218
787	3.93	-128.3542616148754	635.176572962981	320.1109708704988	-163.66640594152594	443.5152018949626	33.879536609431625	-61.70684599246842	208.4265100276674	33.46299279844207
788	3.935	-128.44667203305892	635.1798295924115	320.03634174200306	-163.82839652796895	443.63401177669897	33.713987175459664	-61.81331119119977	208.5633075963301	33.59872260725062
789	3.94	-128.5405644578943	635.1851456202972	319.96137856212346	-163.98894644527257	443.7550570760586	33.54693007603277	-61.91536697105939	208.70436589119336	33.73579657744517
790	3.945	-128.63591927072648	635.1925803164952	319.88609049869547	-164.14798872337278	443.87836124164096	33.37834873475135	-62.01286999070072	208.84978216970887	33.87438585323653
791	3.95	-128.73271679062654	635.2021926377706	319.810486557811	-164.30546458783715	444.0039480214924	33.208227901097544	-62.10569101172829	208.99965448878768	34.014674681378644
792	3.955	-128.83093729815255	635.2140411895836	319.73457560285254	-164.46132371855975	444.1318414324493	33.03655387682012	-62.193715548270944	209.1540815677672	34.15686039906768
793	3.96	-128.9305610588762	635.2281841874977	319.6583663737924	-164.6155244836673	444.26206572591946	32.863314741123645	-62.27684447444471	209.3131626449735	34.30115338386072
